<?xml version="1.0" standalone="no"?>
<!DOCTYPE svg PUBLIC "-//W3C//DTD SVG 20010904//EN"
 "http://www.w3.org/TR/2001/REC-SVG-20010904/DTD/svg10.dtd">
<svg version="1.0" xmlns="http://www.w3.org/2000/svg"
 width="626.000000pt" height="626.000000pt" viewBox="0 0 626.000000 626.000000"
 preserveAspectRatio="xMidYMid meet">

<g transform="translate(0.000000,626.000000) scale(0.100000,-0.100000)"
fill="#000000" stroke="none">
<path d="M1735 5853 c-22 -8 -55 -15 -73 -14 -21 1 -34 -4 -38 -14 -4 -9 -18
-15 -36 -15 -34 0 -68 -16 -68 -32 0 -16 -51 -68 -67 -68 -16 0 -25 -37 -21
-81 3 -33 5 -34 49 -37 38 -2 48 -7 57 -27 7 -15 24 -28 44 -33 26 -6 34 -14
36 -36 3 -20 11 -30 33 -38 35 -12 37 -23 7 -39 -42 -22 -90 -81 -85 -103 3
-12 10 -39 16 -61 5 -22 12 -75 14 -118 5 -81 14 -102 50 -113 12 -4 38 -17
57 -30 19 -13 43 -24 52 -24 11 0 18 -7 18 -18 0 -27 20 -42 56 -42 45 0 50
-14 10 -28 -40 -15 -87 -63 -86 -88 5 -84 -2 -130 -24 -149 -43 -38 -88 -105
-83 -125 4 -14 -4 -22 -33 -34 -44 -17 -48 -23 -72 -90 -25 -70 -42 -91 -103
-130 -37 -24 -57 -44 -61 -63 -4 -15 -19 -42 -34 -60 -15 -17 -29 -36 -32 -43
-2 -6 -24 -14 -48 -17 -25 -3 -57 -12 -72 -19 -25 -13 -28 -12 -40 14 -26 55
-106 33 -134 -38 -8 -20 -30 -51 -49 -69 -38 -35 -48 -62 -43 -107 3 -30 46
-62 87 -63 20 -1 23 -5 18 -28 -3 -16 -8 -35 -12 -44 -8 -22 36 -83 63 -87 14
-2 27 -14 33 -30 5 -15 20 -47 33 -72 16 -31 22 -55 19 -77 -6 -37 -6 -37 -33
-21 -21 14 -80 -2 -112 -29 -14 -13 -19 -13 -40 0 -13 9 -54 17 -98 19 l-74 3
-10 -32 c-7 -25 -14 -33 -32 -33 -53 0 -92 -95 -45 -107 11 -3 32 -23 46 -45
21 -31 44 -48 107 -77 65 -30 77 -39 66 -49 -11 -9 -22 -9 -45 0 -43 16 -67
-3 -59 -46 8 -37 198 -234 264 -273 55 -33 94 -28 202 23 71 33 83 42 103 82
l22 45 8 -47 c4 -26 16 -55 27 -66 25 -25 25 -36 -1 -113 -19 -56 -20 -68 -9
-130 7 -38 13 -81 15 -95 4 -48 26 -156 40 -202 8 -25 21 -88 30 -140 20 -120
28 -145 78 -250 67 -141 69 -145 84 -157 20 -16 60 -131 83 -237 22 -103 53
-172 117 -256 50 -66 99 -187 139 -338 29 -112 48 -152 104 -215 73 -83 121
-95 186 -49 35 25 59 64 78 124 10 35 125 49 177 23 16 -9 33 -13 38 -11 5 3
14 -1 21 -9 17 -20 43 -7 36 18 -3 12 0 27 6 34 8 10 8 20 0 36 -5 12 -13 30
-16 40 -7 23 -46 23 -46 -1 0 -10 4 -22 9 -27 14 -16 23 -65 11 -65 -5 0 -10
5 -10 10 0 6 -6 10 -13 10 -8 0 -22 9 -32 20 -10 11 -31 20 -47 20 -34 0 -34
3 -4 43 13 18 27 42 31 55 5 18 14 22 45 22 29 0 42 5 50 19 13 26 13 154 -1
200 -10 34 -8 43 24 107 75 148 78 165 48 281 -10 40 -16 74 -13 77 3 3 0 36
-7 73 -15 78 -5 138 30 168 16 16 24 17 39 7 40 -25 63 -15 93 38 25 44 32 50
61 50 78 0 149 57 144 114 -3 28 2 33 64 67 37 21 79 50 92 66 13 15 58 55
101 88 42 33 89 80 105 104 16 24 55 67 87 95 46 42 69 55 115 65 46 10 68 22
112 63 31 28 56 56 56 62 0 6 9 19 20 28 19 17 19 18 0 60 -21 48 -15 70 28
92 43 22 89 28 124 17 18 -6 60 -12 93 -14 77 -4 123 18 109 53 -4 8 -6 36 -5
61 1 25 -3 59 -9 75 -7 16 -12 55 -13 87 0 39 -5 61 -14 64 -7 3 -13 13 -13
24 0 10 -7 22 -16 27 -13 7 -14 13 -6 29 6 10 12 37 14 59 3 39 2 39 -54 66
-61 29 -72 45 -36 50 12 2 28 14 35 28 9 18 21 25 43 27 50 2 79 40 47 60 -8
4 -16 16 -20 26 -4 9 -17 17 -30 17 -23 0 -77 46 -77 66 0 6 8 18 18 27 15 14
24 15 57 5 22 -6 49 -20 61 -30 11 -10 36 -19 55 -21 34 -4 34 -4 37 -61 3
-56 4 -58 40 -73 28 -13 75 -17 199 -18 90 -1 165 -3 167 -6 10 -9 -27 -99
-40 -99 -8 0 -14 -4 -14 -10 0 -5 -7 -10 -15 -10 -32 0 -93 -49 -105 -84 -11
-33 -8 -54 16 -138 5 -18 56 -48 81 -48 7 0 27 28 43 62 l29 63 11 -29 c6 -16
18 -77 26 -135 9 -58 19 -113 24 -121 7 -15 50 -22 82 -13 9 2 27 20 38 39 18
28 20 40 12 63 -13 37 -6 69 22 99 16 18 21 36 21 88 0 68 3 72 51 54 38 -15
68 8 90 67 10 26 29 61 42 78 20 24 23 37 19 79 -4 45 -2 52 28 81 34 34 45
69 45 140 0 39 3 44 48 74 26 17 69 47 96 66 55 40 94 44 119 15 19 -23 62
-27 70 -6 5 12 1 23 -31 75 -11 19 -9 23 28 46 33 21 40 31 40 58 0 36 -24 77
-44 77 -26 0 -66 42 -91 94 -14 29 -25 58 -25 63 0 10 -29 24 -77 38 -14 4
-38 -3 -68 -19 -52 -29 -92 -33 -121 -11 -10 8 -27 15 -38 15 -25 0 -86 -38
-86 -55 0 -7 -28 -26 -62 -43 -82 -38 -186 -116 -198 -147 -6 -15 -17 -25 -29
-25 -23 0 -126 -26 -141 -35 -25 -15 14 -85 47 -85 6 0 13 -13 15 -30 4 -27 1
-30 -26 -34 -89 -14 -162 -15 -192 -4 -28 10 -39 9 -73 -7 -34 -15 -46 -16
-67 -7 -14 7 -40 12 -58 12 -47 0 -60 21 -63 104 -2 39 -6 81 -8 93 -7 31 -47
39 -104 21 -40 -12 -46 -18 -48 -43 -2 -17 -8 -56 -14 -88 -10 -49 -9 -61 6
-83 10 -16 14 -35 11 -50 -6 -21 -12 -24 -55 -24 -27 0 -56 -3 -65 -6 -11 -4
-16 -1 -16 10 0 25 -28 31 -50 11 -17 -16 -21 -16 -55 1 -20 9 -54 17 -75 16
-31 -1 -39 2 -43 19 -5 18 -11 21 -49 17 -53 -6 -86 10 -121 55 -34 45 -105
80 -138 70 -22 -7 -78 -9 -151 -5 -17 1 -29 9 -33 22 -5 15 -15 20 -39 20 -20
0 -40 8 -51 20 -10 11 -29 20 -43 20 -27 0 -112 45 -112 60 0 13 -112 80 -135
80 -12 0 -30 6 -40 14 -18 13 -18 14 4 44 12 17 21 37 20 44 -5 32 17 72 67
117 31 28 52 55 49 63 -7 17 -67 56 -99 64 -16 4 -26 13 -26 25 0 19 -44 46
-112 68 -24 8 -44 24 -57 47 -15 25 -27 34 -46 34 -16 0 -24 4 -20 10 4 6 2
16 -3 23 -5 7 -12 29 -15 50 -3 20 -16 51 -27 68 -28 38 -18 50 12 15 l23 -27
48 21 c49 22 84 61 72 80 -4 6 -10 32 -13 57 -6 42 -10 48 -38 55 -35 9 -50
33 -33 54 6 8 8 25 5 39 -6 22 -3 25 19 25 25 0 75 39 75 59 0 6 20 32 45 58
27 29 49 64 55 88 6 22 15 50 20 63 6 13 10 32 10 42 0 20 -31 42 -53 39 -19
-4 -67 23 -67 37 0 23 -56 44 -115 44 -44 0 -63 -5 -88 -24 -41 -30 -112 -66
-131 -66 -9 0 -20 9 -26 20 -6 10 -26 22 -44 26 -37 6 -60 26 -70 60 -4 13
-29 33 -63 50 -30 16 -66 43 -80 60 -13 18 -36 35 -50 39 -15 3 -32 12 -37 20
-11 13 -100 36 -139 34 -12 0 -40 -7 -62 -16z m162 -20 c11 -2 23 -13 26 -23
3 -13 11 -17 25 -13 14 3 33 -8 65 -40 25 -24 66 -54 91 -66 29 -14 46 -30 48
-43 4 -25 43 -56 78 -63 14 -3 26 -9 28 -13 1 -5 8 -17 15 -26 12 -16 16 -16
69 4 31 11 74 34 97 50 32 24 51 30 92 30 60 0 89 -13 89 -40 0 -13 7 -20 19
-20 11 0 27 -10 35 -22 13 -18 18 -19 31 -8 32 26 38 -3 16 -78 -15 -50 -30
-78 -51 -96 -17 -13 -30 -29 -30 -35 0 -6 -7 -11 -15 -11 -8 0 -15 -8 -15 -18
0 -34 -29 -62 -65 -62 -40 0 -50 -12 -35 -40 9 -16 8 -25 -1 -36 -19 -23 6
-71 42 -78 23 -4 29 -11 29 -30 0 -14 4 -36 10 -50 13 -36 6 -48 -46 -72 l-46
-22 -17 29 c-19 33 -21 34 -47 15 -19 -15 -18 -16 9 -68 17 -34 29 -73 31
-108 3 -30 5 -59 5 -65 1 -5 6 -4 13 3 21 21 48 13 68 -21 15 -24 32 -37 63
-47 67 -20 99 -39 93 -56 -4 -11 6 -20 32 -31 20 -8 49 -24 64 -34 l27 -19
-44 -48 c-24 -26 -43 -51 -43 -55 0 -4 -7 -18 -16 -31 -8 -13 -12 -33 -9 -45
3 -11 1 -21 -4 -21 -18 0 -34 -50 -23 -70 11 -20 46 -36 69 -31 14 3 121 -66
121 -78 0 -12 95 -66 112 -63 10 2 30 -6 44 -17 15 -12 39 -21 54 -21 19 0 29
-6 33 -20 4 -14 14 -20 35 -20 17 0 33 -4 36 -9 4 -5 19 -5 36 2 23 9 35 9 49
0 11 -7 21 -8 23 -4 10 28 123 -7 134 -41 3 -11 24 -33 47 -49 35 -25 47 -29
83 -23 36 5 42 3 47 -15 4 -18 12 -21 49 -20 25 1 58 -5 77 -15 27 -15 39 -16
59 -7 19 9 28 9 41 -3 11 -10 33 -13 76 -10 33 3 65 6 72 9 21 7 26 62 8 93
-15 25 -16 35 -4 88 7 32 13 67 11 76 -2 19 54 41 90 36 21 -3 23 -9 24 -59 1
-31 4 -62 8 -68 4 -7 2 -18 -4 -26 -20 -24 23 -69 68 -71 12 -1 41 -7 63 -14
34 -12 44 -11 75 3 40 20 70 22 80 6 4 -7 27 -9 65 -5 33 3 85 9 117 12 l58 6
0 49 c0 43 -2 49 -21 49 -24 0 -60 34 -51 48 5 9 45 18 120 28 33 5 56 21 56
40 0 27 159 134 240 163 22 7 30 15 26 26 -3 10 5 20 26 31 29 15 34 15 59 0
30 -17 119 -22 119 -6 0 6 9 10 20 10 11 0 20 4 20 9 0 16 30 21 58 9 15 -6
30 -11 35 -10 11 3 9 -12 -4 -25 -8 -8 -6 -13 8 -17 11 -4 25 -18 31 -32 10
-20 9 -30 -4 -49 -10 -16 -12 -25 -5 -25 6 0 11 5 11 10 0 15 21 12 41 -6 10
-9 33 -23 51 -32 25 -13 34 -24 36 -48 3 -26 -3 -35 -37 -57 -23 -15 -41 -32
-41 -38 0 -5 11 -27 25 -47 22 -32 23 -37 9 -40 -9 -2 -26 8 -38 22 -21 27
-21 27 -71 12 -28 -9 -69 -31 -90 -49 -22 -19 -59 -46 -82 -61 -42 -26 -43
-27 -43 -81 0 -67 -19 -118 -54 -140 -24 -16 -26 -21 -20 -66 6 -42 3 -54 -19
-87 -13 -20 -30 -53 -36 -73 -15 -48 -43 -74 -68 -61 -10 5 -35 12 -56 15 -34
5 -38 4 -32 -11 4 -9 10 -40 12 -67 4 -43 1 -55 -19 -80 -32 -39 -42 -81 -27
-117 10 -25 9 -31 -15 -55 -20 -20 -29 -24 -38 -15 -9 9 -15 9 -25 0 -7 -6
-15 -9 -16 -7 -2 2 -11 51 -20 109 -22 144 -36 185 -65 186 -17 1 -22 -4 -22
-22 0 -13 -4 -24 -10 -24 -5 0 -10 -9 -10 -21 0 -25 -17 -59 -30 -59 -5 0 -16
12 -24 28 -12 22 -15 23 -16 8 0 -34 -17 -4 -29 53 -10 47 -9 58 7 85 10 17
25 31 33 31 8 1 24 6 37 13 12 7 22 11 22 8 0 -3 11 5 24 17 13 12 29 41 35
65 8 28 17 42 29 42 14 0 13 3 -5 22 -21 20 -32 21 -190 23 -99 1 -179 6 -195
13 -26 11 -28 15 -28 72 0 34 -5 71 -11 83 l-12 21 -8 -23 c-14 -37 -55 -18
-96 45 -11 16 -12 16 -7 2 10 -29 -28 -22 -59 12 -16 17 -34 30 -40 30 -7 0
-4 -7 5 -14 16 -12 16 -15 -8 -37 -49 -46 -50 -57 -8 -100 22 -23 48 -39 61
-39 13 0 23 -6 23 -14 0 -8 8 -17 17 -20 27 -11 -2 -30 -40 -28 -28 2 -34 -2
-44 -28 -8 -20 -16 -28 -26 -24 -15 5 -37 -22 -37 -46 0 -5 26 -23 58 -38 61
-30 62 -32 40 -104 -9 -32 -9 -41 6 -57 9 -10 14 -25 10 -35 -5 -12 0 -16 16
-16 19 0 21 -4 16 -26 -4 -14 1 -55 10 -91 9 -36 14 -80 11 -98 -3 -17 -1 -38
3 -46 6 -9 3 -19 -9 -30 -14 -13 -27 -15 -67 -9 -27 4 -52 6 -56 3 -4 -2 -25
1 -46 8 -32 9 -49 8 -94 -5 -87 -25 -102 -55 -73 -153 5 -16 2 -23 -14 -28
-12 -3 -21 -15 -21 -25 0 -10 -21 -37 -47 -59 -64 -55 -148 -79 -155 -45 -3
14 -7 13 -31 -6 -19 -15 -26 -28 -22 -41 5 -14 -4 -26 -33 -46 -22 -15 -50
-47 -62 -71 -14 -26 -57 -70 -114 -117 -50 -41 -104 -86 -121 -100 -16 -15
-55 -41 -85 -59 -51 -29 -55 -34 -55 -68 -1 -21 -8 -45 -19 -57 -23 -26 -77
-43 -117 -39 -27 3 -34 -2 -50 -32 -10 -19 -21 -43 -25 -53 -8 -20 -41 -23
-46 -3 -2 11 -9 12 -38 2 -46 -15 -74 -64 -73 -130 0 -69 11 -173 23 -216 14
-48 12 -58 -5 -36 -13 17 -15 17 -15 3 0 -9 10 -21 21 -28 32 -17 21 -79 -36
-194 -44 -91 -47 -100 -36 -135 13 -44 14 -169 2 -189 -6 -9 -18 -12 -32 -8
-26 7 -59 -8 -59 -27 0 -7 -14 -34 -31 -59 -35 -53 -30 -73 18 -79 15 -2 28
-9 31 -16 3 -11 0 -12 -18 -2 -18 10 -35 9 -84 -5 -66 -19 -98 -39 -90 -60 15
-37 -73 -125 -124 -125 -26 0 -129 97 -148 140 -51 113 -67 180 -42 164 7 -5
3 5 -10 20 -12 16 -22 33 -22 39 0 27 -68 188 -97 230 -18 26 -33 52 -33 57 0
6 -4 10 -10 10 -26 0 -110 227 -97 264 2 6 -4 28 -14 48 -11 20 -26 59 -35 85
-9 26 -21 53 -28 58 -14 12 -38 54 -61 110 -9 22 -23 51 -31 65 -33 55 -48 99
-65 200 -25 141 -25 143 -32 160 -9 20 -27 108 -25 117 0 5 -2 16 -7 27 -4 10
-4 21 1 25 15 10 15 31 0 25 -10 -4 -14 2 -13 18 0 13 -4 43 -8 68 -12 66 -8
125 10 161 11 21 15 44 11 68 -3 20 -7 42 -8 49 -1 6 -8 12 -15 12 -8 0 -12 4
-8 9 3 5 1 12 -5 16 -19 12 -10 44 18 59 l27 15 -34 1 c-28 0 -33 3 -28 20 3
11 1 22 -4 25 -4 3 -4 16 1 29 7 20 5 25 -11 29 -14 4 -19 0 -19 -14 0 -11 -7
-22 -16 -26 -8 -3 -13 -12 -10 -19 3 -8 0 -14 -6 -14 -6 0 -4 -8 5 -18 21 -23
22 -46 2 -62 -8 -7 -15 -18 -15 -26 0 -17 -143 -85 -192 -92 -26 -3 -46 1 -70
16 -47 30 -258 246 -258 265 0 24 22 32 36 13 11 -16 15 -16 65 0 30 9 58 21
64 25 5 5 17 9 26 9 10 0 20 8 24 19 3 10 14 26 25 36 11 10 20 23 20 28 0 6
-6 3 -13 -8 -8 -10 -19 -15 -24 -12 -6 4 -33 -3 -61 -14 -49 -20 -52 -20 -101
-4 -55 18 -135 71 -126 84 2 5 -2 14 -10 21 -21 17 -19 28 8 52 12 11 5 8 -15
-6 -21 -15 -38 -26 -39 -24 -12 52 5 78 52 78 22 0 29 5 29 19 0 41 9 49 46
41 19 -4 43 -6 54 -3 11 3 37 -2 59 -10 37 -15 41 -15 63 2 37 29 78 35 93 14
12 -15 16 -16 39 -4 19 11 24 20 20 36 -3 13 -1 26 5 29 7 5 -1 30 -24 72 -19
35 -35 76 -35 89 0 17 -5 24 -17 23 -37 -3 -49 3 -66 32 -14 22 -15 34 -7 49
5 11 10 33 10 50 0 27 -3 31 -27 31 -16 0 -42 9 -59 19 -42 26 -36 63 22 125
24 26 44 54 44 62 0 20 49 64 71 64 10 0 25 -13 34 -31 9 -16 22 -28 28 -25
25 10 83 25 119 31 28 4 42 14 60 42 24 37 46 77 58 103 4 8 29 28 57 44 51
29 70 55 102 141 16 43 25 53 66 73 39 19 46 26 41 44 -6 24 51 107 92 134 16
11 21 19 14 26 -6 6 -7 22 -1 44 7 23 6 40 -1 55 -10 17 -6 25 25 55 20 18 50
37 68 42 64 17 32 62 -45 64 -28 1 -32 7 -29 41 2 12 -5 17 -25 17 -15 0 -42
11 -60 25 -18 14 -39 25 -47 25 -27 0 -40 30 -43 101 -2 39 -11 98 -20 130
-17 61 -10 89 22 89 8 0 14 6 14 13 0 7 14 21 30 30 17 10 30 25 30 33 0 8 0
17 1 21 0 4 -14 11 -32 16 -28 7 -31 11 -26 36 5 25 3 28 -39 39 -33 9 -47 19
-54 38 -8 20 -16 25 -38 24 -56 -4 -59 -2 -60 40 -1 27 2 40 11 40 16 0 72 58
80 83 5 14 18 17 69 17 58 0 61 1 42 16 -18 15 -17 15 15 10 19 -3 40 -1 47 5
32 26 101 31 181 12z m-837 -2701 c0 -4 -13 -13 -30 -19 -35 -13 -41 -1 -7 15
27 13 37 14 37 4z m370 -162 c0 -5 -2 -10 -4 -10 -3 0 -8 5 -11 10 -3 6 -1 10
4 10 6 0 11 -4 11 -10z m2135 -390 c-3 -5 -10 -10 -16 -10 -5 0 -9 5 -9 10 0
6 7 10 16 10 8 0 12 -4 9 -10z"/>
<path d="M4011 2954 c0 -11 3 -14 6 -6 3 7 2 16 -1 19 -3 4 -6 -2 -5 -13z"/>
<path d="M4834 1625 c-4 -9 -2 -21 4 -27 15 -15 44 -1 40 19 -4 23 -36 29 -44
8z"/>
<path d="M4794 1563 c-4 -10 -16 -38 -27 -63 -16 -33 -22 -65 -22 -122 0 -48
-5 -82 -13 -90 -6 -6 -12 -24 -12 -39 0 -23 -3 -26 -26 -21 -22 4 -25 2 -22
-19 2 -19 9 -24 30 -22 19 1 28 -4 31 -19 4 -14 12 -19 29 -16 18 2 25 12 32
45 7 31 15 43 30 45 26 4 45 67 24 83 -10 7 -13 26 -10 65 2 30 5 84 6 120 1
60 -1 65 -22 68 -14 2 -24 -3 -28 -15z m33 -60 c0 -21 -6 -45 -14 -55 -10 -11
-11 -18 -4 -23 14 -8 14 -62 1 -70 -5 -3 -10 -16 -10 -29 0 -12 -3 -26 -7 -30
-7 -7 -12 -34 -14 -78 0 -24 -16 -23 -29 2 -13 23 5 104 20 95 6 -3 8 6 5 22
-12 77 -13 103 -5 103 5 0 12 15 15 33 16 71 43 91 42 30z m6 -204 c-6 -6 -9
-19 -6 -28 4 -12 3 -13 -6 -5 -13 12 -5 44 12 44 8 0 8 -3 0 -11z m-63 -119
c0 -5 -4 -10 -10 -10 -5 0 -10 5 -10 10 0 6 5 10 10 10 6 0 10 -4 10 -10z"/>
<path d="M5005 1531 c-9 -16 3 -31 26 -31 14 0 19 6 17 17 -4 20 -33 29 -43
14z"/>
<path d="M4942 1337 c-15 -17 1 -42 23 -33 18 6 17 37 -1 43 -6 2 -16 -2 -22
-10z"/>
<path d="M1463 1234 c-3 -8 -1 -20 5 -26 15 -15 43 8 35 28 -7 19 -32 18 -40
-2z"/>
<path d="M1513 1202 c-2 -11 -13 -22 -24 -25 -27 -7 -27 -67 0 -67 13 0 21 9
26 30 4 17 13 30 21 30 10 0 14 8 12 22 -4 28 -28 35 -35 10z"/>
<path d="M4717 1108 c-10 -8 -18 -29 -20 -53 -2 -35 1 -40 21 -43 13 -2 30 2
38 8 19 16 18 65 -2 84 -19 19 -16 19 -37 4z m31 -46 c2 -13 -3 -25 -13 -28
-22 -9 -27 -1 -19 30 7 31 28 29 32 -2z"/>
<path d="M1376 1093 c-4 -9 -2 -21 3 -26 15 -15 41 0 41 23 0 25 -35 28 -44 3z"/>
<path d="M1435 1089 c-7 -11 21 -79 33 -79 21 0 30 23 19 49 -17 38 -39 52
-52 30z"/>
<path d="M1620 1085 c0 -21 30 -31 40 -14 11 17 3 29 -21 29 -10 0 -19 -7 -19
-15z"/>
<path d="M1615 970 c-8 -26 7 -45 30 -36 21 8 16 50 -7 54 -10 2 -19 -5 -23
-18z"/>
<path d="M4757 834 c-4 -4 -7 -18 -7 -31 0 -21 4 -24 28 -21 21 2 27 8 27 28
0 18 -6 26 -20 28 -12 2 -24 0 -28 -4z m33 -24 c0 -5 -4 -10 -10 -10 -5 0 -10
5 -10 10 0 6 5 10 10 10 6 0 10 -4 10 -10z"/>
<path d="M4902 722 c-5 -4 -12 -20 -14 -36 l-3 -29 -25 26 c-24 26 -49 35 -51
20 0 -5 -2 -16 -4 -27 -5 -26 4 -44 26 -51 11 -4 18 -13 17 -22 -4 -22 25 -37
57 -29 26 7 27 10 22 47 -3 21 -1 42 4 45 5 3 9 16 9 29 0 24 -19 38 -38 27z
m-62 -62 c0 -5 -4 -10 -10 -10 -5 0 -10 5 -10 10 0 6 5 10 10 10 6 0 10 -4 10
-10z m70 -43 c0 -18 -2 -19 -10 -7 -13 20 -13 43 0 35 6 -3 10 -16 10 -28z
m-20 -17 c0 -5 -4 -10 -10 -10 -5 0 -10 5 -10 10 0 6 5 10 10 10 6 0 10 -4 10
-10z"/>
<path d="M1525 677 c-11 -9 -16 -20 -12 -31 8 -20 31 -21 47 0 11 12 11 18 -1
30 -13 12 -18 12 -34 1z"/>
<path d="M4907 522 c-13 -14 -15 -25 -7 -51 26 -93 90 -112 90 -28 0 23 -45
97 -59 97 -4 0 -15 -8 -24 -18z m28 -22 c-3 -5 -11 -10 -16 -10 -6 0 -7 5 -4
10 3 6 11 10 16 10 6 0 7 -4 4 -10z m35 -61 c0 -36 -14 -37 -36 -4 -13 20 -14
28 -4 40 18 21 40 1 40 -36z"/>
</g>
</svg>
