<svg width="104" height="26" viewBox="0 0 104 26" fill="none" xmlns="http://www.w3.org/2000/svg">
<g filter="url(#filter0_d_203_828)">
<path d="M5 17L8 16.5L10.5 15L12 14L14 15L17 16H19L21.5 15L23.5 14.5H25.5H27L29.5 14L31 13.5H33H35H36.5H38.5H41L42.5 12.5L45 11H47.5L49.5 12.5L52.5 11.5L54 10L56 9.5L57.5 8L59.5 7.5L62 6L64.5 5H66.5L68.5 4L71.5 2.5L74.5 2L76.5 2.5H79L81 2L82.5 1H87L88 2L88.5 3.5V5L90.5 6L92 6.5L93.5 8.5L94.5 10V12.5L97 14.5L98 16L99 17.5" stroke="#2290CB" stroke-width="1.8"/>
</g>
<defs>
<filter id="filter0_d_203_828" x="0.852051" y="0.0999985" width="102.897" height="25.8992" filterUnits="userSpaceOnUse" color-interpolation-filters="sRGB">
<feFlood flood-opacity="0" result="BackgroundImageFix"/>
<feColorMatrix in="SourceAlpha" type="matrix" values="0 0 0 0 0 0 0 0 0 0 0 0 0 0 0 0 0 0 127 0" result="hardAlpha"/>
<feOffset dy="4"/>
<feGaussianBlur stdDeviation="2"/>
<feComposite in2="hardAlpha" operator="out"/>
<feColorMatrix type="matrix" values="0 0 0 0 0 0 0 0 0 0 0 0 0 0 0 0 0 0 0.25 0"/>
<feBlend mode="normal" in2="BackgroundImageFix" result="effect1_dropShadow_203_828"/>
<feBlend mode="normal" in="SourceGraphic" in2="effect1_dropShadow_203_828" result="shape"/>
</filter>
</defs>
</svg>
